<svg width="22" height="22" viewBox="0 0 22 22" fill="none" xmlns="http://www.w3.org/2000/svg">
<path d="M11.0005 2C15.971 2.00023 20.0005 6.02961 20.0005 11C20.0005 15.9704 15.971 19.9998 11.0005 20C7.51623 20 4.49565 18.0197 3.00049 15.127C2.81034 14.7591 2.95396 14.3065 3.32178 14.1162C3.68974 13.926 4.14233 14.0705 4.33252 14.4385C5.58028 16.8526 8.09893 18.5 11.0005 18.5C15.1425 18.4998 18.5005 15.142 18.5005 11C18.5005 6.85802 15.1425 3.50023 11.0005 3.5C9.4018 3.5 7.92085 4.00021 6.70361 4.85254L8.31299 6.33496C8.52498 6.53021 8.60602 6.82979 8.52197 7.10547C8.43773 7.3808 8.2031 7.58422 7.91846 7.62793L3.07959 8.37109C2.84657 8.40671 2.60944 8.33086 2.44092 8.16602C2.27239 8.00116 2.19169 7.76598 2.22217 7.53223L2.82959 2.89258L2.85107 2.79102C2.915 2.55899 3.08777 2.36887 3.31787 2.28516C3.58108 2.18968 3.87554 2.24885 4.08154 2.43848L5.57764 3.81641C7.08551 2.67673 8.96456 2 11.0005 2Z" fill="#B7B9BF" style="fill:#B7B9BF;fill:color(display-p3 0.7176 0.7255 0.7490);fill-opacity:1;"/>
</svg>
